<svg version="1.1" xmlns="http://www.w3.org/2000/svg" xmlns:xlink="http://www.w3.org/1999/xlink" width="500" height="500"><g data-paper-data="{&quot;description&quot;:&quot;Logo for Flexform\n=================\n\nThis logo was generated by MarkMaker at http://emblemmatic.org/markmaker/ and may be composed of elements designed by others.\n\nThe font is Amatic SC Bold designed by Vernon Adams and released under the OFL license via Google Fonts: https://www.google.com/fonts/specimen/Amatic%20SC. The font includes this copyright statement: Copyright 2011, 2015 vernon adams (vern@newtypography.co.uk)\n\nMarkMaker uses semantic data from the Princeton University WordNet database http://wordnet.princeton.edu and font descriptions from Google Fonts https://www.google.com/fonts.&quot;}" fill="#60cedc" fill-rule="nonzero" stroke="none" stroke-width="1" stroke-linecap="butt" stroke-linejoin="miter" stroke-miterlimit="10" stroke-dasharray="" stroke-dashoffset="0" font-family="none" font-weight="none" font-size="none" text-anchor="none" style="mix-blend-mode: normal"><g data-paper-data="{&quot;elementType&quot;:&quot;logo&quot;}"><g data-paper-data="{&quot;elementType&quot;:&quot;text&quot;}"><g data-paper-data="{&quot;baseline&quot;:75.87890625,&quot;elementType&quot;:&quot;row&quot;}"><g data-paper-data="{&quot;baselineProportion&quot;:0.9749058971141782,&quot;fontSize&quot;:100,&quot;baseline&quot;:75.87890625,&quot;elementType&quot;:&quot;word&quot;}"><path d="M78.65406,243.68187c0,3.97479 -5.04264,5.96218 -15.12792,5.96218c0,6.58509 0.57842,16.46274 1.73526,29.63293c1.15684,13.17019 1.73526,23.07749 1.73526,29.72191l-0.35595,1.15684c0.17798,0.53393 0.26696,1.4238 0.26696,2.66963c0,1.24583 -0.56359,2.34334 -1.69077,3.29255c-1.12718,0.9492 -2.61031,1.4238 -4.44939,1.4238c-3.50019,0 -5.25028,-3.8858 -5.25028,-11.6574c0,-11.56841 -0.60808,-33.42974 -1.82425,-65.58398c-1.21617,-32.15425 -2.44716,-49.18057 -3.69299,-51.07898c0,-6.28847 4.30108,-9.64034 12.90323,-10.05562c1.24583,-0.05933 2.99592,-0.08899 5.25028,-0.08899c2.25436,0 4.01928,0.41528 5.29477,1.24583c1.27549,0.83055 1.91324,2.52132 1.91324,5.0723c0,2.55098 -1.69077,3.82647 -5.0723,3.82647l-4.44939,-0.17798c-3.38154,0 -5.0723,0.68224 -5.0723,2.04672c0,5.63589 0.44494,13.89692 1.33482,24.78309c0.88988,10.88617 1.36448,18.93956 1.4238,24.16018c5.22062,-1.30515 8.55766,-1.95773 10.01112,-1.95773c1.45347,0 2.66963,0.57842 3.6485,1.73526c0.97887,1.15684 1.4683,2.44716 1.4683,3.87097z" data-paper-data="{&quot;elementType&quot;:&quot;letter&quot;,&quot;baseline&quot;:75.87890625,&quot;baselineProportion&quot;:0.9987146529562982,&quot;fontSize&quot;:100}"></path><path d="M103.57063,215.20578l0.53393,43.78198c-0.7119,1.72043 -1.06785,5.01298 -1.06785,9.87764l-0.7119,29.01001c0,8.36485 2.04672,12.54727 6.14016,12.54727l7.56396,-0.26696c6.52577,0 9.78865,1.77976 9.78865,5.33927c0,1.30515 -0.56359,2.38784 -1.69077,3.24805c-1.12718,0.86022 -2.40267,1.37931 -3.82647,1.55729c-4.44939,-1.4238 -9.87764,-2.13571 -16.28476,-2.13571c-1.95773,1.12718 -3.84131,1.69077 -5.65072,1.69077c-1.80942,0 -3.21839,-0.62291 -4.22692,-1.86874c-1.00853,-1.24583 -1.51279,-2.61031 -1.51279,-4.09344l1.77976,-81.4238v-1.33482c-0.35595,-3.79681 -0.53393,-9.49203 -0.53393,-17.08565c0,-11.50908 2.10604,-17.26363 6.31813,-17.26363c1.24583,0 2.32851,0.44494 3.24805,1.33482c0.91954,0.88988 1.37931,1.95773 1.37931,3.20356z" data-paper-data="{&quot;elementType&quot;:&quot;letter&quot;,&quot;baseline&quot;:66.162109375,&quot;baselineProportion&quot;:0.9762247838616714,&quot;fontSize&quot;:100}"></path><path d="M156.25139,310.51168l7.20801,-0.44494c4.62736,0 6.94105,1.48313 6.94105,4.44939c0,1.83908 -0.80089,3.1739 -2.40267,4.00445c-1.60178,0.83055 -3.4112,1.24583 -5.42825,1.24583h-17.17464c-1.54245,0 -2.86244,-0.53393 -3.95996,-1.60178c-1.09752,-1.06785 -1.69077,-2.43233 -1.77976,-4.09344c-0.08899,-1.6611 0.02966,-3.73749 0.35595,-6.22914c0.32629,-2.49166 0.48943,-4.47905 0.48943,-5.96218l-0.88988,-23.31479l1.24583,-53.21468l-0.97887,-15.39488c0,-8.60215 2.55098,-12.90323 7.65295,-12.90323c1.4238,0 2.75862,0.44494 4.00445,1.33482c0.4746,0.05933 1.61661,0.16314 3.42603,0.31146c1.80942,0.14831 3.39637,0.34112 4.76085,0.57842c1.36448,0.2373 2.84761,0.56359 4.44939,0.97887c3.44086,0.9492 5.16129,2.58065 5.16129,4.89433c0,2.49166 -1.77976,4.39006 -5.33927,5.69522c-5.57657,-1.89841 -10.17427,-3.05525 -13.7931,-3.47052c0.17798,2.61031 0.26696,5.22062 0.26696,7.83092l-0.80089,26.1624c0,0.11865 0.17798,1.06785 0.53393,2.84761c0,0 2.16537,-0.08899 6.49611,-0.26696c5.87319,0 8.80979,1.6611 8.80979,4.98331c0,1.77976 -0.5191,3.35187 -1.55729,4.71635c-1.03819,1.36448 -2.50649,2.04672 -4.40489,2.04672c-1.89841,0 -3.55951,-0.53393 -4.98331,-1.60178h-4.62736c0.35595,4.62736 0.53393,9.01743 0.53393,13.17019l-0.80089,33.01446c0,6.8224 2.19503,10.23359 6.58509,10.23359z" data-paper-data="{&quot;elementType&quot;:&quot;letter&quot;,&quot;baseline&quot;:66.015625,&quot;baselineProportion&quot;:0.9804205946337926,&quot;fontSize&quot;:100}"></path><path d="M195.22803,261.87987c0,0 0,-1.40156 0,-4.20467c0,-2.80311 -1.54245,-11.13089 -4.62736,-24.98331c-3.08491,-13.85243 -5.33927,-21.78717 -6.76307,-23.80423v-1.95773c-1.00853,-1.00853 -1.51279,-2.31368 -1.51279,-3.91546c0,-2.90693 1.80942,-4.3604 5.42825,-4.3604c1.4238,0 2.56581,0.48943 3.42603,1.4683c0.86022,0.97887 1.39414,2.01706 1.60178,3.11457c0.20764,1.09752 0.40044,2.53615 0.57842,4.31591c0.17798,1.77976 0.43011,3.47052 0.7564,5.0723c0.32629,1.60178 1.20133,5.39859 2.62514,11.39043c1.4238,5.99184 2.46199,10.58954 3.11457,13.7931c0.2373,-1.4238 0.83055,-4.56804 1.77976,-9.4327c1.77976,-9.55135 2.66963,-16.07712 2.66963,-19.57731c0,-7.47497 1.83908,-11.03448 5.51724,-10.67853c1.6611,0.11865 2.55098,1.00853 2.66963,2.66963c0.11865,1.12718 0.11865,2.75862 0,4.89433c-0.11865,2.13571 -0.17798,3.70782 -0.17798,4.71635v8.27586c-1.54245,4.15276 -3.29255,11.04931 -5.25028,20.68966c-1.95773,9.64034 -2.9366,16.55172 -2.9366,20.73415c0,4.18242 1.08268,9.9073 3.24805,17.17464c2.16537,7.26733 4.33074,14.23804 6.49611,20.91212c2.16537,6.67408 3.24805,11.06415 3.24805,13.17019c0,2.10604 -0.48943,3.58917 -1.4683,4.44939c-0.97887,0.86022 -2.13571,1.29032 -3.47052,1.29032c-1.33482,0 -2.71413,-0.41528 -4.13793,-1.24583c-0.83055,-3.73749 -2.22469,-9.74416 -4.18242,-18.02002c-1.95773,-8.27586 -3.38154,-14.60882 -4.27141,-18.99889c-0.29663,1.6611 -0.83055,6.16982 -1.60178,13.52614c-0.77123,7.35632 -1.72043,12.93289 -2.84761,16.7297c0.05933,0.41528 0.08899,1.12718 0.08899,2.13571c0,4.50871 -1.57212,6.76307 -4.71635,6.76307c-1.36448,0 -2.62514,-0.37078 -3.78198,-1.11235c-1.15684,-0.74156 -1.73526,-1.76492 -1.73526,-3.07008c0,-7.7716 1.7056,-16.967 5.1168,-27.58621c3.4112,-10.61921 5.1168,-18.73192 5.1168,-24.33815z" data-paper-data="{&quot;elementType&quot;:&quot;letter&quot;,&quot;baseline&quot;:65.44300426136363,&quot;baselineProportion&quot;:0.994804318488529,&quot;fontSize&quot;:100}"></path><path d="M243.90434,250.35595l3.38154,-0.08899c5.87319,0 8.80979,1.60178 8.80979,4.80534c0,1.60178 -0.65258,2.8921 -1.95773,3.87097c-1.30515,0.97887 -3.01075,1.4683 -5.1168,1.4683c-2.10604,0 -4.28624,-0.35595 -6.5406,-1.06785v51.6129c0,6.05117 -2.04672,9.07675 -6.14016,9.07675l-5.0723,-3.82647c0.9492,-10.50056 1.58695,-25.46533 1.91324,-44.89433c0.32629,-19.429 0.80089,-34.60141 1.4238,-45.51724c0.62291,-10.91583 0.93437,-19.04338 0.93437,-24.38265c0,-1.72043 0.72673,-3.05525 2.1802,-4.00445c1.45347,-0.9492 3.08491,-1.4238 4.89433,-1.4238c1.80942,0 3.78198,0.05933 5.91769,0.17798c11.98369,0.88988 17.97553,3.29255 17.97553,7.20801c0,3.44086 -3.08491,5.16129 -9.25473,5.16129c-2.43233,-1.1865 -6.31813,-1.77976 -11.6574,-1.77976v2.13571l-1.69077,36.57397z" data-paper-data="{&quot;elementType&quot;:&quot;letter&quot;,&quot;baseline&quot;:66.6015625,&quot;baselineProportion&quot;:0.9784791965566715,&quot;fontSize&quot;:100}"></path><path d="M322.65851,268.33148c0,34.94253 -7.14868,52.41379 -21.44605,52.41379c-13.17019,0 -20.55617,-16.55172 -22.15795,-49.65517c-0.11865,-3.14423 -0.17798,-6.28847 -0.17798,-9.4327l-0.08899,-11.12347v-3.55951c0,-25.6878 3.76715,-41.55729 11.30145,-47.60845c1.83908,-1.48313 3.8858,-2.28402 6.14016,-2.40267c1.72043,0.59325 3.82647,1.14201 6.31813,1.64627c2.49166,0.50426 4.33074,1.02336 5.51724,1.55729c2.19503,1.00853 4.56804,3.63367 7.11902,7.87542c2.55098,4.24175 4.43456,9.9073 5.65072,16.99666c1.21617,7.08936 1.82425,14.19355 1.82425,21.31257zM288.84316,225.43938l0.26696,10.67853l-0.08899,17.4416c0,1.48313 0.02966,3.23322 0.08899,5.25028c0.05933,2.01706 0.13348,4.67186 0.22247,7.9644c0.08899,3.29255 0.26696,6.55543 0.53393,9.78865c0.26696,3.23322 0.57842,6.64442 0.93437,10.23359c0.35595,3.58917 0.83055,6.91138 1.4238,9.96663c0.59325,3.05525 1.24583,5.8287 1.95773,8.32036c1.60178,5.39859 3.70782,8.09789 6.31813,8.09789c3.50019,0 6.16982,-3.29255 8.0089,-9.87764c2.72896,-9.78865 4.09344,-21.83166 4.09344,-36.12903l0.26696,-18.77642c0,-13.17019 -0.57842,-22.0393 -1.73526,-26.60734c-1.15684,-4.56804 -2.23953,-8.0089 -3.24805,-10.32258c-2.01706,-4.68669 -5.0723,-7.03003 -9.16574,-7.03003c-0.11865,0 -0.2373,0 -0.35595,0c-6.34779,0 -9.52169,7.00037 -9.52169,21.00111" data-paper-data="{&quot;elementType&quot;:&quot;letter&quot;,&quot;baseline&quot;:66.064453125,&quot;baselineProportion&quot;:0.9726815240833933,&quot;fontSize&quot;:100}"></path><path d="M350.60067,256.05117c0,1.54245 -0.41528,4.00445 -1.24583,7.38598c-0.83055,3.38154 -1.24583,6.51094 -1.24583,9.38821c0,2.87727 0.37078,9.01743 1.11235,18.42047c0.74156,9.40304 1.11235,15.46904 1.11235,18.198c0,2.72896 -0.48943,4.80534 -1.4683,6.22914c-0.97887,1.4238 -2.09121,2.13571 -3.33704,2.13571c-1.77976,0 -2.90693,-1.21617 -3.38154,-3.6485c0.11865,-4.50871 0.17798,-10.04079 0.17798,-16.59622c0,-6.55543 -0.5191,-20.95662 -1.55729,-43.20356c-1.03819,-22.24694 -1.55729,-38.85799 -1.55729,-49.83315c0,-5.75454 2.01706,-8.63181 6.05117,-8.63181c6.34779,0 11.68706,1.6611 16.0178,4.98331c4.33074,3.32221 6.49611,8.06822 6.49611,14.23804c0,8.30552 -0.65258,14.77197 -1.95773,19.39933c-1.30515,4.62736 -3.76715,10.41157 -7.38598,17.35261c0.65258,2.90693 1.80942,8.7208 3.47052,17.4416c3.50019,18.86541 7.44531,32.48053 11.83537,40.84538c1.24583,2.37301 1.86874,4.22692 1.86874,5.56174c0,1.33482 -0.37078,2.46199 -1.11235,3.38154c-0.74156,0.91954 -1.73526,1.37931 -2.98109,1.37931c-3.97479,0 -7.62329,-6.61476 -10.94549,-19.84427c-1.4238,-5.75454 -2.6993,-11.56841 -3.82647,-17.4416c-3.20356,-16.07712 -5.25028,-25.12421 -6.14016,-27.14127M349.08788,202.65851l-0.62291,2.58065c0,4.98331 0.11865,12.17649 0.35595,21.57953c0.2373,9.40304 0.35595,16.24027 0.35595,20.51168c2.84761,-1.48313 5.14646,-5.3541 6.89655,-11.6129c1.75009,-6.25881 2.62514,-11.04931 2.62514,-14.37152c0,-3.32221 -0.08899,-5.76937 -0.26696,-7.34149c-0.17798,-1.57212 -0.56359,-3.30738 -1.15684,-5.20578c-1.12718,-3.97479 -3.85614,-6.02151 -8.18687,-6.14016z" data-paper-data="{&quot;elementType&quot;:&quot;letter&quot;,&quot;baseline&quot;:66.650390625,&quot;baselineProportion&quot;:0.975,&quot;fontSize&quot;:100}"></path><path d="M399.36596,309.44383l0.26696,5.42825c0,1.95773 -0.40044,3.45569 -1.20133,4.49388c-0.80089,1.03819 -2.09121,1.55729 -3.87097,1.55729c-1.77976,0 -3.23322,-0.43011 -4.3604,-1.29032c-1.12718,-0.86022 -1.6611,-2.10604 -1.60178,-3.73749c0.05933,-1.63144 0.7564,-16.84835 2.09121,-45.65072c1.33482,-28.80237 2.00222,-50.50056 2.00222,-65.09455c0.17798,-3.08491 0.65258,-5.14646 1.4238,-6.18465c0.77123,-1.03819 1.86874,-1.61661 3.29255,-1.73526c1.4238,-0.11865 2.37301,-0.05933 2.84761,0.17798c0.4746,0.2373 0.90471,0.63775 1.29032,1.20133c0.38561,0.56359 0.7119,1.08268 0.97887,1.55729c0.26696,0.4746 0.5191,1.20133 0.7564,2.1802c0.2373,0.97887 0.41528,1.72043 0.53393,2.22469c0.11865,0.50426 0.26696,1.30515 0.44494,2.40267c0.17798,1.09752 0.35595,2.16537 0.53393,3.20356c0.17798,1.03819 1.06785,5.25028 2.66963,12.63626c1.60178,7.38598 3.3667,16.90768 5.29477,28.56507c1.92807,11.6574 4.16759,26.4442 6.71858,44.3604c3.73749,-19.99258 6.97071,-38.94698 9.69967,-56.86318c2.72896,-17.9162 4.16759,-27.43789 4.31591,-28.56507c0.14831,-1.12718 0.26696,-1.95773 0.35595,-2.49166c0.08899,-0.53393 0.25213,-1.33482 0.48943,-2.40267c0.2373,-1.06785 0.45977,-1.89841 0.66741,-2.49166c0.20764,-0.59325 0.5191,-1.29032 0.93437,-2.09121c0.41528,-0.80089 0.86022,-1.40897 1.33482,-1.82425c1.12718,-1.06785 2.46199,-1.60178 4.00445,-1.60178c1.54245,0 3.02558,0.44494 4.44939,1.33482c1.4238,0.88988 2.13571,2.10604 2.13571,3.6485c0,27.88283 0.25213,47.19318 0.7564,57.93103c0.50426,10.73786 0.7564,17.2043 0.7564,19.39933l-0.17798,29.36596c0.53393,1.30515 0.80089,2.68446 0.80089,4.13793c0,1.45347 -0.4746,3.01075 -1.4238,4.67186c-0.9492,1.6611 -2.19503,2.49166 -3.73749,2.49166c-3.79681,0 -5.69522,-3.79681 -5.69522,-11.39043l0.26696,-16.81869c0,-11.80571 -0.11865,-22.36559 -0.35595,-31.67964c0.17798,-5.51724 0.26696,-19.93326 0.26696,-43.24805c-1.83908,11.39043 -4.39006,26.66667 -7.65295,45.8287c-3.26288,19.16203 -4.99815,29.32147 -5.20578,30.47831c-0.20764,1.15684 -0.37078,2.26919 -0.48943,3.33704c-0.11865,1.06785 -0.2373,1.98739 -0.35595,2.75862c-0.11865,0.77123 -0.34112,1.6611 -0.66741,2.66963c-0.32629,1.00853 -0.69707,1.83908 -1.11235,2.49166c-1.00853,1.60178 -2.43233,2.40267 -4.27141,2.40267c-3.55951,0 -5.69522,-2.61031 -6.40712,-7.83092c-0.9492,-7.41565 -2.8921,-20.45235 -5.8287,-39.11012c-2.9366,-18.65777 -5.1168,-31.21987 -6.5406,-37.68632c-0.9492,41.58695 -1.4238,70.53763 -1.4238,86.85206z" data-paper-data="{&quot;elementType&quot;:&quot;letter&quot;,&quot;baseline&quot;:65.95052083333331,&quot;baselineProportion&quot;:0.9712368168744008,&quot;fontSize&quot;:100}"></path></g></g></g></g></g></svg>